<?xml version="1.0" encoding="UTF-8"?>
<svg width="288px" height="416px" viewBox="0 0 288 416" version="1.1" xmlns="http://www.w3.org/2000/svg" xmlns:xlink="http://www.w3.org/1999/xlink">
    <title>Logo</title>
    <g id="krawl" stroke="none" stroke-width="1" fill="none" fill-rule="evenodd">
        <g id="Logo" fill="#E6387F" fill-rule="nonzero">
            <path d="M144,0 C80.812496,0 15.437504,46.125008 2.5,118 L1.5,118.5 C1.5,118.5 2.437504,119.812496 2.5,120 C1.187504,127.75 0,135.687504 0,144 C0,200.187504 12.625008,265.375008 36,318.5 C47.687504,345.062496 62.312496,368.875008 80,386.5 C97.687504,404.125008 119.437504,416 144,416 C168.312496,416 189.937504,404.125008 207.5,386.5 C225.062496,368.875008 239.75,345.562496 251.5,319 C275.062496,265.937504 288,200.25 288,144 C288,135.687504 286.75,127.687504 285.5,120 C285.562496,119.812496 286.5,118.5 286.5,118.5 L285.5,118 C272.687504,45.562496 207.187504,0 144,0 Z M144,32 C189.187504,32 238.125008,62.937504 252,114.5 C248.937504,119.187504 244.5,125.625008 237.5,134 C221.75,152.875008 195.125008,179.812496 151,211 L144,216 L137,211 C92.875008,179.812496 66.25,152.875008 50.5,134 C43.5,125.625008 39.062496,119.187504 36,114.5 C49.937504,63.25 98.937504,32 144,32 Z M32.5,161.5 C48.375008,179.062496 72.187504,201.125008 104.5,225.5 C94.187504,236.625008 75.562496,254.875008 51.5,268 C40.875008,233.625008 34.25,195.75 32.5,161.5 Z M255.5,161.5 C253.687504,195.75 247.25,233.562496 236.5,268 C236.5,268.062496 236,267.937504 236,268 C212.125008,254.875008 193.75,236.562496 183.5,225.5 C215.812496,201.125008 239.625008,179.062496 255.5,161.5 Z M144,229.5 L147.5,234 C147.5,234 180.187504,275.437504 225,298.5 C223.937504,301 223.062496,303.562496 222,306 C211.312496,330.062496 198.562496,350.375008 185,364 C171.437504,377.625008 157.937504,384 144,384 C129.625008,384 116.125008,377.562496 102.5,364 C88.875008,350.437504 76.062496,330 65.5,306 C64.437504,303.562496 63.5,301 62.5,298.5 C107.5,275.437504 140.5,234 140.5,234 L144,229.5 Z" id="形状"></path>
        </g>
    </g>
</svg>